<svg width="305" height="304" viewBox="0 0 305 304" fill="none" xmlns="http://www.w3.org/2000/svg">
<path d="M283.12 74.99C245.08 75.94 208.79 77.52 174.28 79.74C114.17 83.61 66.79 88.71 32.14 95.03C23.41 96.62 15.78 98.23 9.24998 99.84C6.49998 107.37 4.33999 115.17 2.79999 123.2C17.63 124.91 48.95 127.72 96.75 131.6C145.76 135.58 189.59 140.16 228.26 145.31C257.47 149.14 282.7 153.04 303.96 157.03C304.01 155.36 304.05 153.69 304.05 152.01C304.06 123.89 296.42 97.57 283.12 74.99Z" fill="#FD4C21"/>
<path d="M225.97 208.59C251.52 205.57 275.3 201.67 297.32 196.9C298.56 192.87 299.64 188.77 300.55 184.6C293.23 182.09 240.12 173.85 216.19 171.21C192.26 168.57 112.27 160.3 84.61 157.87C47.3 154.59 22.89 153.22 0.0800018 150.59C0.0800018 151.06 0.0599976 151.53 0.0599976 152C0.0599976 175.96 5.61 198.62 15.49 218.78C51.37 218.42 82.67 217.77 109.39 216.85C153.41 215.33 192.27 212.57 225.97 208.59Z" fill="#FD4C21"/>
<path d="M103.93 42.46C148.25 38.09 195.96 35.04 247.01 33.3C220.99 12.47 187.98 0 152.06 0C107.41 0 67.25 19.26 39.44 49.92C58.56 47.3 80.05 44.82 103.93 42.46Z" fill="#FD4C21"/>
<path d="M259.85 246.91C237.26 249.84 208.83 252.59 174.57 255.17C140.31 257.75 103.17 259.77 63.16 261.23C57.72 261.43 52.33 261.61 46.96 261.78C74.26 287.92 111.29 303.99 152.07 303.99C200.94 303.99 244.41 280.92 272.22 245.09C268.17 245.73 264.05 246.33 259.85 246.91Z" fill="#FD4C21"/>
</svg>
